<svg xmlns="http://www.w3.org/2000/svg" xmlns:i="http://ns.adobe.com/AdobeIllustrator/10.0/" id="Ebene_1" viewBox="0 0 141.732 141.732"><defs><style>      .st0 {        fill: #bcd3e5;      }      .st1 {        fill: #545554;      }    </style></defs><path class="st0" d="M80.707,65.99c-1.028.83-4.055,3.392-4.055,3.392,0,0-2.21,2.054-4.135,2.792-1.404.539-2.15.314-4.255.455-2.2.147-1.462,5.087-1.462,5.712,0,1.702.372,32.219.372,33.885,0,1.543.197,3.414,3.736,3.731,2.497.223,5.8-.036,7.699-.167,1.821-.125,2.898-.765,2.952-2.085.055-1.345-.778-1.614-1.617-1.766-3.024-.546-5.553-.45-6.071-2.769-.339-1.518-1.201-30.371-.949-31.994s.932-4.057,5.685-4.057c2.146,0,3.157-.205,3.171-1.066.01-.637.221-2.584.147-4.724-.046-1.316-.439-1.968-1.217-1.34Z"></path><path class="st1" d="M95.705,69.916c-.68,1.599-1.387,3.279-2.153,4.917.127-1.166.024-2.406.096-3.527.2-3.137.217-6.272.203-9.414-.004-.987-1.732-.707-1.758.181-.114,3.932-.263,7.849-.295,11.773-.433-1.135-.901-2.258-1.371-3.378-.383-.912-2.196-.308-1.813.589.668,1.564,1.371,3.125,1.935,4.731.388,1.106.485,2.302,1.122,3.302.305.479,1.164.246,1.417-.158,1.666-2.665,3.015-5.847,3.83-8.878.203-.755-.975-.695-1.212-.138Z"></path><path class="st1" d="M96.88,33.871c-.71-1.546-1.456-3.087-2.063-4.677-.418-1.093-.545-2.294-1.208-3.275-.311-.461-1.168-.265-1.417.158-1.595,2.712-2.86,5.924-3.592,8.981-.181.754.986.711,1.212.138.626-1.588,1.275-3.259,1.981-4.892-.109,1.326.056,2.778.018,3.96-.095,2.956-.022,5.907.072,8.862.031.986,1.756.71,1.758-.181.008-3.941.051-7.867-.025-11.798.461,1.114.955,2.215,1.451,3.313.408.902,2.218.293,1.813-.589Z"></path><polygon class="st1" points="73.08 47.124 73.079 47.125 73.075 47.126 73.08 47.124"></polygon><polygon class="st1" points="73.075 47.126 73.071 47.128 73.068 47.13 73.075 47.126"></polygon><polygon class="st1" points="73.065 47.131 73.064 47.131 73.063 47.132 73.065 47.131"></polygon><path class="st1" d="M73.059,47.134s0,0-.001,0c-.004.003-.008.004-.011.006.005-.002.008-.004.013-.006Z"></path><path class="st1" d="M72.766,47.253c-.01.003-.02.006-.03.009-.002,0-.004.001-.006.002.013-.004.024-.008.035-.011Z"></path><path class="st1" d="M63.908,42.363c1.837.154,3.7.018,5.54.082.733.027,1.466-.033,2.198-.052.432-.01,1.189-.072,1.076-.678-.045-.191-.199-.321-.388-.359-2.572-.382-5.203-.724-7.817-.519-.865-.022-1.715.116-2.567.249-.487.009-1.214.37-.73.902.8.464,1.802.264,2.687.374Z"></path><path class="st1" d="M68.618,38.925c1.325.036,2.662-.067,3.979-.206.19-.038.318-.234.299-.422-.108-.567-1.082-.367-1.524-.497-1.471-.132-2.927-.386-4.399-.502-.642-.059-6.333-.506-5.57.795.926.975,5.698.684,7.214.832Z"></path><path class="st1" d="M62.782,35.448c.923.221,1.869.326,2.816.364,2.312.017,4.646-.069,6.943-.264.145-.052.237-.204.22-.355-.03-.311-.383-.332-.627-.371-3.194-.345-6.421-.714-9.653-.614-.415-.036-1.093.16-.848.697.235.385.751.428,1.149.544Z"></path><path class="st1" d="M84.121,61.605c-.144-1.008-.662-1.413-1.675-1.759-.226-4.49-.186-8.683-.289-13.513,0,0,.608-.504.961-1.603.254-.791.3-2.051.248-2.899,1.297-.359.874-2.063.984-3.104v.048c-.12-1.445.123-5.17-.111-7.633-.073-.77-.472-1.507-1.979-1.615-5.03-.362-22.173-.563-28.251-.44-4.63-.002-3.97,1.289-4.349,5.263-.054,1.208-.398,3.891-.111,5.694.15.938.724,1.725,1.059,1.757-.003,1.073-.312,2.487.658,3.237-.036,4.208-.144,8.29-.216,12.504-.013.635,0,1.296-.008,1.956-.644.221-2.487,1.097-2.443,2.727.022.827.217,6.758.217,12.938,0,8.902-.375,19.538-.36,26.442.013,5.9-.487,13.898.208,15.441.68,1.509,2.52,1.417,4.238,1.587,6.23.615,17.638.32,21.447.222,1.896-.234,6.532.157,8.622-.925,1.761-.912,1.405-4.326,1.525-5.623.056-3.833-.637-14.882-.644-25.971-.006-10.113.699-20.274.269-24.73ZM57.888,105.237s0,0-.002,0c0,0,0,0,.002,0ZM52.06,62.388c.02.016.01.008,0,0,.03-.043.025-.003,0,0ZM72.697,69.248c-1.364.731-2.388.702-6.3.7-2.869-.001-4.991-.236-6.009-.854-2.729-1.974-5.269-4.205-7.877-6.339-.061-4.434.322-9.173.243-13.576.025-.973-.013-1.946-.012-2.918,2.791,2.003,5.202,4.977,8.223,6.657.251.14,1.056.565,1.879.624,1.966.143,5.555.313,8.479.278.574-.007,1.636-.167,2.869-1.063,2.677-1.944,5.56-4.335,6.702-5.304-.003,5.005-.042,9.9.202,14.898-2.782,2.32-5.4,4.836-8.399,6.897ZM82.216,61.371c-.004.047-.002.024,0,0,.057.027.033.044,0,0ZM63.979,30.358c5.296.005,11.814.131,17.117.334,1.541.059,1.851,1.36,1.845,1.706-.04,2.181-.067,4.366-.073,6.548-.026.233-.256.959-.607,1.339-.641.694-7.938,6.234-10.27,7.343-.892.424-2.829.464-3.341.842,0,0,0,0,0,0-.521.39.242.569.576.539-.003,0-.006,0-.01,0,.919.023,1.854.077,2.759-.099-.005.001-.009.002-.014.004.003,0,.007-.002.01-.002-.003,0-.006.002-.009.003,1.449-.201,8.202-5.14,9.924-6.514-.134.107-.013.336-.028.469.125,1.073-.361,1.907-1.218,2.548-1.454,1.146-5.494,4.58-7.408,6.079-.364.285-1.287.883-2.227.983-2.683.284-7.356-.065-8.222-.349-2.628-.862-4.739-3.076-6.903-4.924-.671-.45-2.139-2.099-3.327-2.781-.729-.584-.548-1.567-.565-2.397,2.869,1.812,5.181,4.46,8.12,6.165,0,0-.001,0-.002-.001,0,0,.001,0,.002,0-.012-.007-.025-.015-.037-.022,1.575.917,3.618,1.041,4.599.997,1.8-.081,1.063-.775-.09-.822-1.026-.041-2-.191-2.876-.602-2.703-1.267-4.8-3.947-7.202-5.715-1.45-1.298-3.612-1.696-3.61-3.719.252-2.036.347-4.091.416-6.141.011-.321.131-1.601,1.464-1.647,2.85-.03,8.357-.329,11.209-.163ZM50.09,114.677c-.125-1.284.116-3.086.116-3.086,2.482-.061,7.153.299,7.649-2.946.006-.321-.433-.271-1.095.498-1.462,1.698-6.644.776-6.644.776-.031-1.372-.048-2.74.018-4.108.279-4.344.564-24.208.661-30.034,0,0,1.894.011,3.623.117,1.569.096,2.332.807,2.439,2.487.304,4.782.481,9.375.522,12.911.046,4.017-.043,9.908-.043,12.488,0,1.64.945,1.792.956.078.027-4.286.728-21.721.349-26.574-.132-1.685-.701-2.125-1.358-2.451-2.21-1.096-6.642-.627-6.642-1.06,0-1.36-.128-3.304-.183-5.105-.098-3.173-.419-6.207-.112-5.888,2.236,2.316,5.379,4.713,8.378,6.946,1.524,1.134,2.777,1.334,3.656,1.421,3.052.301,8.149.19,9.575-.15,1.032-.246,2.592-1.078,4.07-2.444,2.597-2.401,4.29-3.56,6.825-6.046.003,1.33-.041,3.344-.129,4.978-.148,2.145-.337,4.496-.405,6.698-.496-.066-3.535-.264-5.635.155-.929.185-2.521.956-2.876,3.041-.455,2.676.275,23.489.24,27.097-.016,1.623.183,1.829.373,1.884.889.258.65-1.31.69-2.092.013-1.428-.014-2.855-.048-4.282-.019-6.534-.287-13.083-.159-19.611.582-4.792,3.457-4.355,7.342-4.395-.34,9.121.161,18.242.537,27.353.013,2.078-.024,4.155-.044,6.233-1.332-.039-2.668.043-4-.038-1.199-.022-2.755.145-3.466-1.041-.24-.336-.774-.019-.614.347.598,1.703,2.604,2.217,4.233,2.27,1.204.095,2.749-.081,3.838.073,0,.981.006,1.95-.012,2.933.214,3.376-1.928,2.883-4.252,3.173-4.685.584-19.338.681-25.995-.261-2.522-.357-2.348-2.053-2.377-2.347Z"></path><polygon class="st1" points="74.547 104.889 74.536 104.894 74.538 104.894 74.547 104.889"></polygon><polygon class="st1" points="74.535 104.895 74.526 104.9 74.536 104.895 74.535 104.895"></polygon><path class="st1" d="M74.525,104.899s-.007.002-.011.003c0,0,0,0,0,0,.004-.001.007-.002.011-.004Z"></path><rect class="st1" x="55.125" y="50.882" width="2.608" height="13.446" rx="1.304" ry="1.304"></rect><rect class="st1" x="58.725" y="54.181" width="2.608" height="13.446" rx="1.304" ry="1.304"></rect><path class="st0" d="M79.183,50.059c-.261.22-1.708,1.361-2.22,1.788s-2.493,1.889-3.326,2.334c-1.535.821-3.543.46-4.352.578-1.238.18-.719,1.437.685,1.935.888.315,4.566.641,5.884.911,1.308.268,1.535,1.559,1.62,2.378s-.095,4.197.65,3.549,1.909-1.672,2.079-2.628-.171-6.328,0-9.143c.058-.952.128-2.67-1.021-1.702Z"></path><metadata></metadata></svg>