<svg xmlns="http://www.w3.org/2000/svg" xmlns:xlink="http://www.w3.org/1999/xlink" id="Ebene_1" data-name="Ebene 1" viewBox="0 0 270.02 241.92"><defs><style>      .cls-1 {        fill: none;      }      .cls-2 {        fill: url(#Unbenannter_Verlauf_8);      }      .cls-3 {        fill: #fbba09;      }      .cls-4 {        fill: #f39200;      }      .cls-5 {        fill: #555554;      }      .cls-6 {        fill: #73512e;      }      .cls-7 {        fill: #df7e00;      }      .cls-8 {        fill: #57bcaf;      }      .cls-9 {        fill: #f9ae09;      }      .cls-10 {        fill: url(#Unbenannter_Verlauf_10-2);      }      .cls-11 {        fill: url(#Unbenannter_Verlauf_10-3);      }      .cls-12 {        fill: url(#Unbenannter_Verlauf_11-2);      }      .cls-13 {        fill: url(#Unbenannter_Verlauf_11-3);      }      .cls-14 {        fill: #047c35;      }      .cls-15 {        fill: url(#Unbenannter_Verlauf_10);      }      .cls-16 {        fill: url(#Unbenannter_Verlauf_11);      }      .cls-17 {        fill: #8c6239;      }      .cls-18 {        fill: #fedd97;      }    </style><radialGradient id="Unbenannter_Verlauf_11" data-name="Unbenannter Verlauf 11" cx="126.81" cy="125.5" fx="96.06" fy="108.47" r="78.27" gradientUnits="userSpaceOnUse"><stop offset="0" stop-color="#fcfcf2"></stop><stop offset=".55" stop-color="#fbba09"></stop><stop offset="1" stop-color="#f7a608"></stop></radialGradient><radialGradient id="Unbenannter_Verlauf_11-2" data-name="Unbenannter Verlauf 11" cx="126.81" cy="125.5" fx="96.06" fy="108.47" r="78.27" xlink:href="#Unbenannter_Verlauf_11"></radialGradient><radialGradient id="Unbenannter_Verlauf_11-3" data-name="Unbenannter Verlauf 11" cx="126.81" cy="125.5" fx="96.06" fy="108.47" r="78.27" xlink:href="#Unbenannter_Verlauf_11"></radialGradient><linearGradient id="Unbenannter_Verlauf_8" data-name="Unbenannter Verlauf 8" x1="62" y1="4.08" x2="62" y2="53.02" gradientUnits="userSpaceOnUse"><stop offset="0" stop-color="#d0e09b"></stop><stop offset=".42" stop-color="#5db130"></stop><stop offset="1" stop-color="#0e7e35"></stop></linearGradient><linearGradient id="Unbenannter_Verlauf_10" data-name="Unbenannter Verlauf 10" x1="199.19" y1="150.38" x2="226.31" y2="224.9" gradientUnits="userSpaceOnUse"><stop offset="0" stop-color="#fefbe4"></stop><stop offset=".57" stop-color="#f9ee7d"></stop><stop offset="1" stop-color="#f9ef84"></stop></linearGradient><linearGradient id="Unbenannter_Verlauf_10-2" data-name="Unbenannter Verlauf 10" x1="244.92" y1="133.74" x2="269.87" y2="202.29" xlink:href="#Unbenannter_Verlauf_10"></linearGradient><linearGradient id="Unbenannter_Verlauf_10-3" data-name="Unbenannter Verlauf 10" x1="242.48" y1="134.63" x2="269.63" y2="209.22" xlink:href="#Unbenannter_Verlauf_10"></linearGradient></defs><g><path class="cls-1" d="M154.81,55.02s0,0,0,0c.47.17.94.36,1.41.55-.46-.19-.93-.38-1.41-.55Z"></path><path class="cls-1" d="M154.32,55.7c-.13.19-.27.38-.4.56.21-.3.42-.59.63-.88-.08.11-.16.21-.24.32Z"></path><path class="cls-1" d="M125.8,79.41s.12-.11.26-.24c-.1.07-.2.15-.26.24Z"></path><path class="cls-1" d="M47.84,117.72c0,.06,0,.12-.01.18,0-.08.01-.16.02-.24,0,.02,0,.04,0,.06Z"></path><path class="cls-1" d="M146.95,70c.04.29.22.71.29.9-.07-.2-.13-.39-.18-.6-.02-.11-.06-.21-.11-.31Z"></path><path class="cls-1" d="M165.72,60.25c-.09-.05-.18-.1-.27-.15.63.36,1.27.72,1.89,1.1-.54-.32-1.08-.64-1.63-.95Z"></path><path class="cls-17" d="M137.45,69.84c-.84,2.95-1.39,5.12-1.61,5.98-.34,1.32-2.35.74-2.09-.6.12-.59.22-1.17.33-1.76-.35.15-.72.29-1.1.37-.11.02-.21.03-.32.04-.02,2.42-1.05,4.81-2.95,6.21,2.27.66,4.21,1.87,5.08,4.05,1.41-.71,3.13-.84,4.66-.65,1.09.14,2.15.42,3.14.85.14-.56,3.12-2.54,4.41-2.9-.25-.35.23-4.25.86-5.49-.12-.05-.24-.1-.34-.15-.6-.31-1.15-.75-1.64-1.22-.05-.05-.09-.11-.14-.16-.23.97-.45,1.94-.65,2.92-.24,1.15-.42,2.29-.97,3.33-.57,1.07-2.41.76-2.65-.4-.12-.59-.13-1.2-.09-1.81-.66-3.09.12-12.82,5.2-25.08.91-2.2,6.21-9.6,7.74-11.72-1.32-.86-2.77-1.5-4.3-1.91-.27.73-3.16,5.41-3.83,6.77-3.91,7.84-6.79,16.62-8.53,22.6-.05.16-.22.75-.22.75Z"></path><path class="cls-6" d="M141.39,78.44c.05-.74.18-1.48.28-2.2.16-1.11.34-2.21.54-3.31.41-2.16.93-4.3,1.62-6.39,2.11-6.39,5.9-12.26,10.38-17.24.45-.5.9-1.01,1.35-1.51.19-.21.38-.43.57-.65.11-.13.23-.26.34-.39.02-.02.07-.08.12-.14.44-.52.85-1.09,1.28-1.63-.14-.19-.29-.38-.44-.56-.68-.8-1.44-1.55-2.27-2.19-.27-.21-.55-.4-.84-.59-1.53,2.12-6.83,9.52-7.74,11.72-5.08,12.26-5.86,21.99-5.2,25.08Z"></path><path class="cls-16" d="M125.93,59.22c3.52,2.82,7.06,5.82,9.38,7.82.06-.28.12-.57.19-.85.71-2.91,1.52-5.79,2.44-8.64-.34-.3-2.35-4.74-3.33-6.36-.38-.63-.76-1.22-1.15-1.79-2.97-.14-5.95-.19-8.93-.1-2.43.07-4.87.24-7.31.48,3.43,2.43,8.31,9.12,8.69,9.43Z"></path><path class="cls-12" d="M140.36,50.87c.12-.3.25-.61.38-.91-.02,0-.05,0-.07,0-.42-.04-.84-.07-1.25-.11.27.48.53.96.77,1.45.06-.14.11-.29.17-.43Z"></path><path class="cls-13" d="M118.56,182.53c70.87-3.37,81-64.9,66.67-107.13-2.5-2.62-5.19-5.08-8.04-7.39-1.64-1.32-3.56-2.74-5.46-4.04-.63-.43-1.27-.84-1.91-1.25-.17-.11-.34-.22-.52-.33-.55-.35-1.11-.69-1.66-1.02-.1-.06-.19-.12-.29-.18-.63-.37-1.26-.74-1.89-1.1-.39-.22-.78-.44-1.17-.65-.01,0-.02-.01-.04-.02-1.47-.8-2.97-1.55-4.49-2.25-.15-.07-.31-.14-.46-.21-.33-.15-.67-.31-1.01-.47-.22-.1-.44-.2-.66-.3-.3-.14-.61-.27-.91-.4-.16-.07-.33-.14-.49-.21-.46-.19-.93-.38-1.41-.55-.09.12-.17.24-.26.35-.21.29-.42.59-.63.88-.12.16-.23.33-.35.49-.35.5-.7,1-1.03,1.52-2.15,3.26-3.75,6.35-5.03,10.02-.2.56-.38,1.13-.55,1.7.05.1.09.2.11.31.05.2.11.4.18.6.16.38.36.74.6,1.08.27.33.57.63.9.91.3.21.61.4.92.6.41-.42.86-.81,1.33-1.14,2.58-1.86,5.65-2.62,8.73-3.18.74-.14,1.55.23,1.73,1.02.19.81-.39,1.43-1.11,1.67-1.26.42-2.42.81-3.5,1.26-.6.25-1.19.53-1.76.86-.27.15-.54.32-.8.49-.04.03-.05.03-.05.03-.02.01-.04.03-.09.07-.12.09-.23.18-.35.27-.16.13-.31.27-.46.41.34,3.01,1.96,4.35,5.1,4.7,1.51.17,3.09.23,4.42.96,1.04.57,1.85,1.73,1.85,2.86.9.91.03,2.65-1.47,2.27-3.8-.96-8.37-2.28-12.48-1.65-.8,1.72-.92,3.74-.33,5.54.57,1.72,3.25,6.95.33,8.03.13.44.27.87.41,1.3.99,2.89-1.05,3.49-1.87,2.14-2.26-3.7-2.49-8.67-5.48-11.94-.43-.47-1.12-1.24-2.29-1.77-.43,1.05-2.19.68-3.24,1.34-2.11,1.34-2.13,3.69-3.1,6.07-.61,1.48-.17,2.96-1.16,4.11-.19,1.67-.37,3.33-.58,5-.18,1.48-2.48,1.48-2.46-.07.05-3.27.15-6.54.24-9.81.04-1.41.07-2.82.09-4.23.02-1.18.12-2.39-.18-3.55-.1-.41-.32-.93-.51-1.19-.24-.34-.65-.68-.98-.92-.47-.35-1.44-.85-2.17-1.1-4.99-1.73-10.66-1.69-15.79-.72-1.32.25-1.77-1.64-.45-1.95,3.45-.81,7.02-1.21,10.56-1.31,1.19-.03,2.57-.04,3.98.07.07-.09.16-.17.26-.24.7-.61,2.57-2.25,2.96-3.44.54-1.6.34-3.21-.17-4.8-1.21-3.79-4.73-6.12-7.94-8.11-.5-.31-.51-.83-.28-1.21-1.45-.58-2.97-.94-4.53-.98-3.67-.09-12.94,5.31-18.49,8.73-3.01,1.85-20.39,5.96-28.75,12.91-4.91,4.09-9.38,6.3-12.42,7.58-.85,1.54-1.56,2.93-2.21,4.33-1.67,3.6-3.06,7.34-4.12,11.16-.14.5-.27.99-.39,1.47-.04.16-.08.31-.12.47-.08.33-.16.65-.24.98-.04.19-.08.37-.13.55-.07.3-.13.59-.2.89-.04.19-.08.39-.12.58-.06.29-.12.57-.17.86-.04.2-.07.39-.11.59-.05.29-.1.58-.15.88-.03.19-.06.38-.09.57-.05.31-.09.63-.14.94-.02.17-.05.34-.07.52-.05.4-.1.79-.15,1.2-.01.1-.02.19-.03.29-.06.5-.11,1.01-.15,1.53,0,.08-.01.16-.02.24-.7,7.98,0,15.8,1.8,23.54,12.54,22.81,35.85,42.66,68.93,41.09Z"></path><path class="cls-2" d="M97.7,21.64c12.16,1.88,17.02-1.18,18.96-3.89-1.2-1.4-2.49-2.73-3.85-3.99-.84-.77-1.71-1.5-2.59-2.21-.05-.04-.07-.06-.1-.08-.01-.01-.03-.02-.06-.04-.12-.09-.24-.18-.36-.27-.21-.16-.42-.31-.63-.47-.42-.31-.85-.62-1.28-.91-1.86-1.28-3.82-2.43-5.84-3.44-.53-.26-1.06-.51-1.6-.75-.23-.11-.47-.21-.71-.31-.02,0-.12-.05-.17-.07-.08-.03-.15-.06-.23-.09-1.09-.45-2.41-1.19-3.61-.95-.65.12-1.27.47-1.89.7-.76.28-1.53.49-2.33.6-1.62.22-3.23.19-4.85-.01-3-.37-5.93-1.06-8.95-1.26-2.82-.19-5.67-.1-8.48.26-5.7.73-11.31,2.31-16.58,4.59-11.02,4.76-20.73,12.04-28.87,20.82-6.79,7.33-12.49,15.58-18.97,23.17,6.64-2.82,13.76-4.59,20.84-5.72,8.23-1.31,16.63-1.81,24.96-1.58,9.09.25,18.16,1.29,27.25.51,4.32-.37,8.6-1.12,12.8-2.21,4.15-1.08,8.15-2.55,12.22-3.89,5.25-1.73,10.93-3.34,16.52-3.23-9.41-5-20.29-6.88-31.06-7.02l-20.57,1.59c-6.31.97-12.57,2.3-18.76,3.86-8.61,2.18-17.05,4.94-25.62,7.24-1.26.34-2.06-1.61-.81-2.09.12-.05.24-.09.36-.13,2.27-1.51,16.69-10.85,29.89-13.43,14.38-2.81,35.78-6.73,44.97-5.3Z"></path><path class="cls-14" d="M74.94,30.54c-2.43.26-4.86.58-7.28.95l20.57-1.59c-4.49-.06-8.96.19-13.29.64Z"></path><path class="cls-14" d="M97.7,21.64c-9.19-1.42-30.59,2.49-44.97,5.3-13.2,2.58-27.62,11.92-29.89,13.43,9.54-3.57,19.35-6.6,29.2-9.17,17.33-4.52,35.6-6.91,53.36-3.49,7.71,1.49,15.28,4.33,21.68,8.93-2.22-6.9-5.69-13.4-10.42-18.9-1.94,2.71-6.81,5.77-18.96,3.89Z"></path><path class="cls-4" d="M166.38,182.53c18.9-11.78,37.32-33.54,30.65-86.96-.24-1.93-.13-3.11.1-3.83-.32-.6-.65-1.2-.99-1.79-3.03-5.29-6.7-10.14-10.91-14.55,14.33,42.23,4.2,103.76-66.67,107.13-33.08,1.57-56.39-18.27-68.93-41.09.32,1.36.66,2.72,1.05,4.08,1.17,4.15,2.43,7.61,4.15,11.39,1.6,3.52,3.45,6.93,5.55,10.17.51.79,1.03,1.56,1.57,2.33.29.41.58.81.87,1.21.14.19.27.37.41.56.03.04.05.07.07.09.01.02.04.05.07.09,1.11,1.45,2.26,2.86,3.47,4.23,2.38,2.69,4.96,5.21,7.69,7.54.67.57,1.34,1.13,2.03,1.67.18.14.36.29.55.43.09.07.18.14.26.2.32.25.64.49.97.73,1.39,1.03,2.82,2.02,4.28,2.95.75.48,1.51.95,2.27,1.41,3.66.94,9.07,2.36,16.35,4.33,8.49,2.3,40.98,2.72,65.15-12.34Z"></path><path class="cls-4" d="M138.28,89.02c1.05-.67,2.82-.3,3.24-1.34-.61-.28-1.36-.49-2.28-.56-1.85-.14-3.66,1-4.02,1.28-.05.54-.11,1.08-.18,1.62-.19,1.57-.37,3.15-.54,4.72-.16,1.48-.32,2.97-.49,4.45.99-1.15.55-2.62,1.16-4.11.97-2.38.99-4.73,3.1-6.07Z"></path><path class="cls-4" d="M162.85,80.89c-1.33-.73-2.91-.8-4.42-.96-3.14-.35-4.77-1.69-5.1-4.7-.08.07-.16.14-.23.21-.1.1-.2.2-.3.31-.03.03-.06.06-.08.09-.31.4-.58.81-.83,1.24-.02.04-.13.24-.14.28-.05.13-.11.26-.15.39-.1.26-.16.53-.24.79,0,0-.27,1.34-.21,2.13,4.38-.17,8.93,1.22,12.99,2.72.25.09.43.22.58.37,0-1.13-.81-2.29-1.85-2.86Z"></path><path class="cls-4" d="M150.43,89.91c-.6-1.8-.47-3.82.33-5.54-1.63.25-3.2.8-4.61,1.81-.14.1-.28.18-.43.26,3.09,3.1,3.82,7.45,5.04,11.51,2.92-1.09.24-6.32-.33-8.03Z"></path><path class="cls-4" d="M97.61,69.37c5.56-3.42,14.82-8.82,18.49-8.73,1.56.04,3.08.4,4.53.98.25-.41.79-.67,1.31-.35,3.9,2.38,8.35,4.96,10.13,9.42.06-.02.12-.04.17-.05.2-.03.4-.08.59-.14.19-.09.38-.18.57-.28.18-.09.36-.18.53-.29.33-.25.65-.55.92-.86.01-.01.03-.02.05-.04.13-.66.27-1.32.42-1.98-2.32-2-5.86-5.01-9.38-7.82-.38-.31-5.26-7-8.69-9.43-8.44.86-16.8,2.79-24.59,6.11-3.77,1.61-7.48,3.5-10.89,5.78-.18.12-.36.25-.55.37,0,0-.01,0-.02.01-.05.04-.11.08-.14.09-.38.27-.76.54-1.14.82-.85.63-1.69,1.28-2.51,1.95-2.01,1.62-3.94,3.35-5.79,5.14-1.05,1.02-2.08,2.07-3.08,3.14-.53.56-1.05,1.14-1.56,1.72-.15.17-.3.34-.45.51-.04.04-.17.2-.23.27-.22.26-.44.52-.66.77-2.21,2.64-4.26,5.41-6.14,8.29-.99,1.52-1.93,3.08-2.82,4.67-.08.14-.15.27-.23.41,3.04-1.28,7.5-3.5,12.42-7.58,8.36-6.95,25.75-11.06,28.75-12.91Z"></path><path class="cls-7" d="M196.71,164.7c1.02-1.65,1.98-3.34,2.86-5.07.04-.07.24-.49.25-.51.09-.18.18-.36.26-.55.19-.41.38-.82.56-1.23.4-.89.77-1.78,1.13-2.69.73-1.86,1.37-3.75,1.92-5.66.27-.95.53-1.91.76-2.88.12-.49.23-.97.33-1.46.05-.25.1-.49.15-.74.02-.11.05-.23.07-.34,0,0,0-.01,0-.02.77-4.1,1.15-8.27,1.2-12.44.05-4.73-.27-8.72-.97-13.3-.75-4.94-1.83-9.86-3.3-14.63-1.21-3.94-2.82-7.7-4.82-11.43-.23.72-.34,1.9-.1,3.83,6.67,53.42-11.75,75.18-30.65,86.96-24.18,15.06-56.66,14.64-65.15,12.34-7.27-1.97-12.68-3.39-16.35-4.33,2.2,1.32,4.46,2.53,6.78,3.64.77.37,1.54.72,2.31,1.07.18.08.37.16.55.24.06.03.19.08.27.12.39.16.78.33,1.17.49,1.56.63,3.14,1.21,4.74,1.75,3.16,1.06,6.37,1.95,9.62,2.66,1.63.36,3.28.67,4.92.94.13.02.26.04.39.06,0,0,.32.05.41.06.4.06.8.12,1.21.17.8.11,1.6.21,2.41.3,3.16.35,6.34.54,9.52.57,3.1.03,6.2-.12,9.29-.4.02,0,.02,0,.03,0,.02,0,.04,0,.07,0,.19-.02.37-.04.56-.06.37-.04.74-.08,1.11-.13.73-.09,1.46-.19,2.19-.3,1.43-.22,2.86-.48,4.27-.77,2.71-.57,5.4-1.28,8.02-2.17.34-.11.68-.23,1.01-.35.03-.01.13-.04.22-.06.02-.02.07-.04.18-.08.61-.23,1.22-.47,1.82-.72,1.19-.5,2.37-1.04,3.52-1.62,3.32-1.68,6.48-3.72,9.57-5.79.49-.33.98-.66,1.47-1,.08-.06.12-.08.14-.09.01-.01.05-.04.14-.1.22-.16.45-.32.67-.47.88-.63,1.76-1.27,2.63-1.93,1.7-1.28,3.36-2.61,4.97-4,3.14-2.69,6.11-5.57,8.84-8.67.06-.07.36-.41.39-.44.12-.13.23-.27.34-.41.32-.38.64-.76.95-1.15.62-.77,1.23-1.55,1.82-2.34,1.17-1.57,2.27-3.18,3.31-4.84Z"></path><path class="cls-5" d="M194.13,175.94c5.69-5.8,9.58-13.16,12.48-20.76,3.01-7.91,4.42-16.41,4.43-24.85,0-9.84-1.61-19.91-4.63-29.27-3.2-9.9-8.7-18.89-15.63-26.62-6.55-7.3-14.45-13.64-23.21-18.09-2.05-1.04-4.15-1.98-6.29-2.82-1.37-.54-2.8-.95-4.21-1.35.2-.22.39-.43.59-.65,1-1.14,1.99-2.28,2.96-3.45.61-.73,1.42-1.55,1.72-2.48.43-1.34-.75-2.54-1.53-3.49-.78-.96-1.67-1.81-2.64-2.57-2.07-1.63-4.42-2.84-6.98-3.49-.63-.16-1.85-.45-2.77.65-.87,1.04-3.47,5.13-4.1,6.28-.73,1.33-2.04,3.61-2.32,4.06,0,0-.79.02-1.15-.02-1.15-.14-2.3-.26-3.45-.37-.38-.53-.77-1.06-1.18-1.57-.85-1.07-1.77-2.08-2.74-3.05.01-.2,0-.41-.05-.64-2.32-10.51-7.06-20.47-14.54-28.29-3.31-3.47-7.13-6.48-11.31-8.84-2.09-1.18-4.28-2.21-6.53-3.07-1.36-.52-2.77-1.06-4.24-1.17-1.78-.13-3.16.72-4.8,1.21-2.92.87-6.08.05-9-.42-3.04-.49-6.1-.72-9.19-.68-6.07.08-12.08,1.23-17.8,3.23-11.74,4.12-22.35,11.26-31.1,20.07-8.76,8.82-15.76,19.14-23.28,28.98-3.3,4.31-.79,5.61.68,5.01,7.52-3.09,13.25-4.94,21.27-6.33,8-1.38,16.14-1.83,24.25-1.68,8.87.17,17.73,1.06,26.6.75,8.72-.3,17.3-1.91,25.59-4.59,8.25-2.66,17.33-6.7,25.99-3.48.33.12,3.79,2.64,5.05,4.11-8.08-.33-16.18.18-24.13,1.7-9.51,1.82-19.08,5.23-27.18,10.6-3.99,2.65-7.7,5.72-11.14,9.04-4.85,4.68-9.22,9.89-12.91,15.53-4.37,6.67-7.81,14-9.95,21.69-2.53,9.1-3.15,18.59-2.12,27.97,1.01,9.13,3.59,18.16,7.39,26.51,3.24,7.12,7.56,13.76,12.76,19.61,4.86,5.47,10.55,10.2,16.73,14.11,5.98,3.78,21.67,11.98,39.34,13.44,29.37,2.42,49.84-5.57,74.28-30.49ZM105.41,27.71c-17.76-3.42-36.03-1.03-53.36,3.49-9.85,2.57-19.66,5.6-29.2,9.17-.12.05-.24.09-.36.13-1.26.47-.45,2.42.81,2.09,8.57-2.3,17.01-5.07,25.62-7.24,6.2-1.57,12.45-2.9,18.76-3.86,2.42-.37,4.84-.69,7.28-.95,4.33-.45,8.8-.7,13.29-.64,10.76.14,21.65,2.02,31.06,7.02-5.58-.11-11.26,1.5-16.52,3.23-4.07,1.34-8.07,2.81-12.22,3.89-4.2,1.09-8.48,1.84-12.8,2.21-9.09.78-18.16-.27-27.25-.51-8.33-.22-16.73.27-24.96,1.58-7.07,1.13-14.2,2.9-20.84,5.72,6.47-7.59,12.17-15.84,18.97-23.17,8.14-8.78,17.85-16.06,28.87-20.82,5.27-2.28,10.88-3.86,16.58-4.59,2.81-.36,5.65-.45,8.48-.26,3.02.2,5.95.88,8.95,1.26,1.62.2,3.23.23,4.85.01.8-.11,1.57-.32,2.33-.6.62-.23,1.25-.58,1.89-.7,1.2-.23,2.51.51,3.61.95.08.03.15.06.23.09.05.02.15.07.17.07.24.1.47.21.71.31.54.24,1.07.49,1.6.75,2.03,1,3.98,2.15,5.84,3.44.43.3.86.6,1.28.91.21.16.42.31.63.47.12.09.24.18.36.27.03.02.04.03.06.04.03.02.06.05.1.08.88.71,1.75,1.45,2.59,2.21,1.37,1.26,2.65,2.59,3.85,3.99,4.74,5.5,8.2,12,10.42,18.9-6.4-4.61-13.97-7.45-21.68-8.93ZM146.19,46.49c.68-1.35,3.56-6.03,3.83-6.77,1.53.41,2.98,1.05,4.3,1.91.28.19.57.38.84.59.83.64,1.59,1.39,2.27,2.19.16.18.3.37.44.56-.43.54-.84,1.11-1.28,1.63-.05.06-.11.13-.12.14-.11.13-.23.26-.34.39-.19.22-.38.43-.57.65-.45.51-.9,1.01-1.35,1.51-4.48,4.98-8.27,10.85-10.38,17.24-.69,2.09-1.22,4.23-1.62,6.39-.21,1.1-.38,2.2-.54,3.31-.1.72-.23,1.46-.28,2.2-.04.61-.04,1.22.09,1.81.24,1.16,2.08,1.47,2.65.4.56-1.04.74-2.18.97-3.33.2-.98.42-1.95.65-2.92.05.05.09.11.14.16.48.47,1.04.91,1.64,1.22.11.06.23.1.34.15-.63,1.25-1.11,5.14-.86,5.49-1.3.36-4.27,2.34-4.41,2.9-.99-.43-2.05-.71-3.14-.85-1.53-.2-3.25-.06-4.66.65-.87-2.17-2.82-3.39-5.08-4.05,1.9-1.4,2.93-3.79,2.95-6.21.1,0,.21-.02.32-.04.38-.08.74-.21,1.1-.37-.11.59-.21,1.18-.33,1.76-.27,1.34,1.75,1.92,2.09.6.22-.86.76-3.03,1.61-5.98.07-.25.14-.5.22-.75,1.74-5.98,4.62-14.76,8.53-22.6ZM140.67,49.96s.05,0,.07,0c-.13.3-.26.6-.38.91-.06.14-.11.29-.17.43-.25-.49-.51-.97-.77-1.45.42.04.84.07,1.25.11ZM190.64,173.02c-.11.14-.23.27-.34.41-.02.03-.32.37-.39.44-2.73,3.1-5.7,5.98-8.84,8.67-1.62,1.38-3.28,2.71-4.97,4-.87.65-1.74,1.3-2.63,1.93-.22.16-.45.32-.67.47-.08.06-.12.09-.14.1-.02.01-.05.04-.14.09-.49.34-.98.67-1.47,1-3.09,2.07-6.25,4.11-9.57,5.79-1.15.58-2.33,1.12-3.52,1.62-.6.25-1.21.49-1.82.72-.11.04-.16.07-.18.08-.1.03-.19.05-.22.06-.34.12-.68.24-1.01.35-2.63.89-5.31,1.6-8.02,2.17-1.42.3-2.84.55-4.27.77-.73.11-1.46.21-2.19.3-.37.05-.74.09-1.11.13-.19.02-.37.04-.56.06-.03,0-.04,0-.07,0-.01,0-.01,0-.03,0-3.09.28-6.18.43-9.29.4-3.18-.03-6.36-.22-9.52-.57-.8-.09-1.61-.19-2.41-.3-.4-.05-.8-.11-1.21-.17-.09-.01-.41-.06-.41-.06-.13-.02-.26-.04-.39-.06-1.65-.27-3.29-.59-4.92-.94-3.25-.71-6.47-1.6-9.62-2.66-1.6-.54-3.18-1.12-4.74-1.75-.39-.16-.78-.32-1.17-.49-.07-.03-.21-.09-.27-.12-.18-.08-.37-.16-.55-.24-.78-.34-1.55-.7-2.31-1.07-2.31-1.11-4.58-2.32-6.78-3.64-.76-.46-1.52-.93-2.27-1.41-1.46-.94-2.88-1.92-4.28-2.95-.32-.24-.65-.48-.97-.73-.09-.07-.18-.14-.26-.2-.18-.14-.37-.29-.55-.43-.69-.55-1.36-1.1-2.03-1.67-2.73-2.34-5.31-4.85-7.69-7.54-1.21-1.37-2.36-2.78-3.47-4.23-.04-.05-.06-.07-.07-.09-.01-.02-.03-.05-.07-.09-.14-.19-.28-.37-.41-.56-.29-.4-.58-.81-.87-1.21-.54-.77-1.06-1.54-1.57-2.33-2.1-3.25-3.95-6.65-5.55-10.17-1.72-3.78-2.97-7.23-4.15-11.39-.38-1.36-.73-2.72-1.05-4.08-1.8-7.74-2.5-15.57-1.8-23.54,0-.06,0-.12.01-.18,0-.02,0-.04,0-.06.05-.52.1-1.03.15-1.53.01-.1.02-.19.03-.29.05-.4.09-.8.15-1.2.02-.17.05-.34.07-.52.04-.32.09-.63.14-.94.03-.19.06-.38.09-.57.05-.29.1-.58.15-.88.04-.2.07-.39.11-.59.05-.29.11-.57.17-.86.04-.19.08-.39.12-.58.06-.29.13-.59.2-.89.04-.18.08-.37.13-.55.08-.32.16-.65.24-.98.04-.16.08-.31.12-.47.13-.49.26-.98.39-1.47,1.07-3.83,2.45-7.56,4.12-11.16.65-1.4,1.36-2.79,2.21-4.33.08-.14.15-.27.23-.41.89-1.59,1.83-3.15,2.82-4.67,1.88-2.88,3.93-5.65,6.14-8.29.22-.26.44-.52.66-.77.06-.07.2-.23.23-.27.15-.17.3-.34.45-.51.51-.58,1.03-1.15,1.56-1.72,1-1.07,2.03-2.12,3.08-3.14,1.85-1.8,3.78-3.52,5.79-5.14.82-.67,1.66-1.32,2.51-1.95.38-.28.76-.55,1.14-.82.02-.02.08-.06.14-.09,0,0,.01-.01.02-.01.18-.12.36-.25.55-.37,3.42-2.28,7.12-4.17,10.89-5.78,7.79-3.32,16.15-5.26,24.59-6.11,2.43-.25,4.87-.41,7.31-.48,2.98-.09,5.96-.05,8.93.1.39.57.77,1.16,1.15,1.79.98,1.62,2.99,6.05,3.33,6.36-.92,2.85-1.73,5.73-2.44,8.64-.07.28-.13.57-.19.85-.15.66-.29,1.32-.42,1.98-.01.01-.03.02-.05.04-.27.31-.59.61-.92.86-.17.1-.35.2-.53.29-.19.09-.38.19-.57.28-.19.06-.39.11-.59.14-.06,0-.12.03-.17.05-1.78-4.45-6.23-7.04-10.13-9.42-.52-.32-1.05-.06-1.31.35-.24.38-.23.9.28,1.21,3.2,2,6.72,4.32,7.94,8.11.51,1.59.71,3.19.17,4.8-.4,1.19-2.26,2.83-2.96,3.44-.15.13-.25.22-.26.24-1.41-.11-2.79-.1-3.98-.07-3.54.1-7.11.5-10.56,1.31-1.32.31-.87,2.2.45,1.95,5.13-.97,10.8-1,15.79.72.73.25,1.7.76,2.17,1.1.33.24.74.58.98.92.19.26.4.78.51,1.19.29,1.16.2,2.37.18,3.55-.03,1.41-.06,2.82-.09,4.23-.09,3.27-.19,6.54-.24,9.81-.02,1.56,2.28,1.55,2.46.07.2-1.66.39-3.33.58-5,.16-1.48.33-2.97.49-4.45.17-1.58.36-3.15.54-4.72.06-.54.13-1.08.18-1.62.36-.29,2.17-1.42,4.02-1.28.92.07,1.66.28,2.28.56,1.18.53,1.87,1.31,2.29,1.77,2.99,3.27,3.22,8.23,5.48,11.94.82,1.35,2.86.74,1.87-2.14-.15-.43-.28-.86-.41-1.3-1.22-4.06-1.95-8.41-5.04-11.51.15-.07.29-.16.43-.26,1.41-1.01,2.97-1.56,4.61-1.81,4.11-.62,8.67.69,12.48,1.65,1.5.38,2.36-1.36,1.47-2.27-.15-.15-.33-.28-.58-.37-4.05-1.49-8.6-2.89-12.99-2.72-.06-.79.21-2.12.21-2.13.09-.26.15-.53.24-.79.05-.13.1-.26.15-.39.02-.04.13-.25.14-.28.26-.43.52-.85.83-1.24.02-.03.05-.06.08-.09.1-.1.2-.21.3-.31.07-.07.16-.14.23-.21.15-.14.3-.28.46-.41.11-.09.23-.18.35-.27.05-.03.07-.05.09-.07,0,0,.01,0,.05-.03.26-.17.53-.33.8-.49.57-.32,1.16-.6,1.76-.86,1.08-.45,2.24-.84,3.5-1.26.71-.24,1.29-.86,1.11-1.67-.18-.79-.98-1.15-1.73-1.02-3.08.56-6.14,1.32-8.73,3.18-.47.34-.91.72-1.33,1.14-.31-.2-.62-.39-.92-.6-.33-.27-.63-.57-.9-.91-.24-.34-.44-.7-.6-1.08-.07-.2-.25-.61-.29-.9.17-.57.36-1.14.55-1.7,1.29-3.67,2.89-6.77,5.03-10.02.34-.51.68-1.01,1.03-1.52.12-.17.23-.33.35-.49.13-.19.26-.38.4-.56.08-.11.16-.21.24-.32.09-.12.17-.24.26-.35,0,0,0,0,0,0,.47.17.94.36,1.41.55.17.07.33.14.49.21.31.13.61.27.91.4.22.1.44.2.66.3.34.16.67.31,1.01.47.15.07.31.14.46.21,1.52.7,3.02,1.45,4.49,2.25.01,0,.02.01.04.02.39.21.78.43,1.17.65.09.05.18.1.27.15.54.31,1.09.63,1.63.95.1.06.19.12.29.18.56.33,1.11.68,1.66,1.02.17.11.35.22.52.33.64.41,1.28.83,1.91,1.25,1.91,1.3,3.83,2.72,5.46,4.04,2.85,2.3,5.54,4.77,8.04,7.39,4.21,4.41,7.88,9.26,10.91,14.55.34.6.67,1.19.99,1.79,2,3.73,3.61,7.49,4.82,11.43,1.47,4.77,2.55,9.7,3.3,14.63.7,4.59,1.02,8.57.97,13.3-.04,4.17-.43,8.34-1.2,12.44,0,.01,0,.02,0,.02-.02.11-.05.23-.07.34-.05.25-.1.49-.15.74-.11.49-.22.98-.33,1.46-.23.96-.48,1.92-.76,2.88-.55,1.92-1.19,3.81-1.92,5.66-.36.9-.73,1.8-1.13,2.69-.18.41-.37.82-.56,1.23-.09.18-.17.36-.26.55-.01.02-.22.44-.25.51-.88,1.73-1.83,3.42-2.86,5.07-1.03,1.66-2.14,3.28-3.31,4.84-.59.79-1.2,1.57-1.82,2.34-.31.39-.63.77-.95,1.15Z"></path></g><g><path class="cls-1" d="M253.43,138.84c3.61-1.75,7-2.93,10.42-4.9-2.74,1.27-6.9,3.2-10.42,4.9Z"></path><path class="cls-1" d="M264.59,133.59c.91,7.16,1.76,13.67,1.55,20.91.22-7.26-.59-13.74-1.5-20.93-.02,0-.03.02-.05.02Z"></path><path class="cls-3" d="M159.37,224.54c-8.76-7.86-15.42-17.82-19.73-28.73,0,3.36.17,6.72.69,10.05.93,5.88,2.88,11.65,6.66,16.34,3.59,4.45,8.31,7.78,13.48,10.17,6.11,2.82,12.67,4.16,19.35,4.78-.66-.25-1.33-.51-1.98-.78-6.8-2.87-12.98-6.9-18.47-11.83Z"></path><path class="cls-15" d="M264.59,133.59c-.24.11-.49.23-.75.35-3.42,1.97-6.8,3.15-10.42,4.9-4.5,2.18-9.02,4.33-13.56,6.44-16.4,7.59-32.95,14.84-49.66,21.72-1.36.56-2.73,1.11-4.11,1.66-14.93,6-30.47,11.51-45.34,17.19-.3.11,1.54,4.43,2.09,5.91,4.65,12.5,12.96,24.31,23.43,32.38,11.25,8.67,24.91,13.21,39.09,12.64,6.8-.27,13.85-1.85,20.12-4.75,6.64-3.08,12.38-7.71,17.23-13.16,4.93-5.54,8.94-11.96,12.2-18.61,3.49-7.12,6.18-14.65,8.06-22.36,1.87-7.66,2.92-15.53,3.15-23.41.22-7.23-.64-13.74-1.55-20.91ZM162.8,215.66c-11.86-6.45-21.11-28.59-8.21-32.58,13.73-5.32,27.81-11.1,41.56-16.37,9.12-3.49,6.02.95,3.76,4.84-6.54,11.25-15.57,30.22-22.86,40.83-4.18,6.07-8.71,6.29-14.25,3.28ZM197.39,233.26c-14.23-1.17-23.56-9.49-18.55-18.07,2.15-3.68,20.23-37.61,23.64-44.06,3.88-7.32,3.86-4.77,5.32,1.28,3.09,12.86,10.69,44.56,11.66,48.02,2.45,8.81-6.48,14.11-22.06,12.83ZM241.64,216.74c-9.1,8.17-17.21,8.01-18.97,3-.91-2.58-10.03-37.71-12.93-49.6-.91-3.74.26-5.2,2.38-3.46,6.83,5.59,18.09,15.67,26.62,22.97,4.45,3.81,9.46,6.99,9.78,11.43.45,6.36-3.04,12.21-6.88,15.66ZM259.11,184.09c-2.57,7.52-8.24,12.22-14.18,6.94-5.79-5.14-23.25-18.56-30.34-24.53-3.12-2.63-.41-3.75,1.44-3.56,13.89,1.43,39.69,3.9,40.2,3.97,7.36,1,4.96,11.72,2.88,17.18ZM256.35,164.56c-7.49-.73-35.78-2.99-39.78-3.39-2.83-.28-2.34-1.46-1.35-1.97,5.64-2.88,33.89-15.66,37.41-17.1,4.88-2,9.87-.96,10.55,9.03.54,7.97-2.02,13.91-6.84,13.43Z"></path><path class="cls-10" d="M254.85,161.1c.1-.05.05-.03,0,0h0Z"></path><path class="cls-11" d="M255.06,169.3c.06.03.21.08,0,0h0Z"></path><path class="cls-9" d="M196.15,166.71c-13.75,5.26-27.83,11.05-41.56,16.37-12.9,4-3.66,26.13,8.21,32.58,5.54,3.01,10.07,2.8,14.25-3.28,7.3-10.61,16.33-29.58,22.86-40.83,2.26-3.89,5.36-8.33-3.76-4.84ZM181.35,200.63c-4.08,6.2-8.94,12.92-13.4,13.03s-11.06-4.69-13.99-9.09c-2.92-4.39.07-7.05,2.48-4.29s8.12,5.04,11.46,4.31c5.27-1.15,20.07-21.51,21.73-20.84,2.07.83-4.21,10.67-8.29,16.88ZM192.17,174.09c-.52.42-13.42,11.36-14.57,12.23-1.14.87-3.52,1.89-3.97.99-.45-.89,1.33-2.39,1.91-2.79.59-.4,15.84-10.7,16.1-10.86,1.09-.69,1.04,0,.52.43ZM191.95,171.91c-.94.45-24.62,12.26-26.69,13.2s-6.13,1.9-6.56.77c-.44-1.13,2.81-2.74,3.86-3.16s28.24-11.2,28.7-11.37c1.93-.72,1.64.12.69.57Z"></path><path class="cls-9" d="M207.8,172.42c-1.46-6.06-1.44-8.6-5.32-1.28-3.41,6.45-21.49,40.38-23.64,44.06-5.01,8.59,4.32,16.91,18.55,18.07,15.58,1.28,24.51-4.03,22.06-12.83-.96-3.46-8.57-35.16-11.66-48.02ZM204.48,178.13c-.07.66-1.44,17.53-1.63,18.95-.19,1.43-1.15,3.82-2.1,3.51-.95-.32-.75-2.62-.62-3.32.13-.7,3.62-18.77,3.69-19.07.28-1.26.74-.73.67-.07ZM189.18,210.14c-1.11-.49.05-3.93.49-4.97.44-1.04,12.02-27.9,12.23-28.35.85-1.87,1.24-1.07.9-.09-.35.99-8.71,26.09-9.51,28.22-.8,2.12-2.98,5.68-4.09,5.19ZM214.52,226.38c-3,3.3-11.03,4.77-16.23,3.85-5.2-.92-5.05-4.91-1.39-4.75,3.66.16,9.12-2.48,11.03-5.32,4.15-6.19.76-14.98,2.39-15.73,2.03-.92,3.31,2.32,4.45,7.25,1.68,7.23,2.76,11.4-.25,14.7Z"></path><path class="cls-9" d="M238.74,189.64c-8.54-7.3-19.79-17.38-26.62-22.97-2.12-1.74-3.29-.27-2.38,3.46,2.9,11.9,12.02,47.03,12.93,49.6,1.76,5.01,9.87,5.17,18.97-3,3.84-3.45,7.33-9.3,6.88-15.66-.32-4.45-5.32-7.63-9.78-11.43ZM221.86,201.19c-.37-1.07-9.79-28.76-9.94-29.23-.62-1.96.2-1.63.61-.66.4.97,11.03,25.2,11.86,27.31s1.59,6.21.44,6.59c-1.15.38-2.6-2.95-2.97-4.01ZM245.22,204.8c-1.22,6.02-8.76,12.52-12.15,13.97-3.39,1.45-7.66,1.55-8.03.19-.37-1.36,4.36-2.92,6.56-4.43,6.73-4.61,8.1-11.89,8.57-13.55,1.58-5.51,6.28-2.2,5.05,3.81Z"></path><path class="cls-9" d="M256.23,166.91c-.51-.07-26.31-2.54-40.2-3.97-1.86-.19-4.56.93-1.44,3.56,7.09,5.98,24.56,19.4,30.34,24.53,5.94,5.28,11.61.58,14.18-6.94,2.08-5.45,4.48-16.18-2.88-17.18ZM250.82,172.58c-.47,1.3-3.82.83-4.82.59-1.01-.24-27.13-6.68-27.57-6.8-1.82-.5-1.05-1.1-.09-.95.96.15,25.37,3.52,27.43,3.91,2.07.39,5.52,1.94,5.05,3.24ZM255.06,169.3c.21.08.06.03,0,0h0ZM255.41,169.48c.21.08.06.03,0,0h0Z"></path><path class="cls-9" d="M252.64,142.1c-3.52,1.44-31.77,14.22-37.41,17.1-.99.51-1.48,1.69,1.35,1.97,4,.4,32.28,2.66,39.78,3.39,4.83.47,7.39-5.46,6.84-13.43-.68-9.98-5.67-11.02-10.55-9.03ZM248.74,151.24c-.92.29-24.71,7.57-25.11,7.68-1.68.46-1.31-.52-.47-.87.84-.35,21.94-9.71,23.77-10.4,1.83-.69,5.27-.98,5.45.52.17,1.5-2.72,2.78-3.64,3.07ZM254.85,161.1s.1-.05,0,0h0Z"></path><path class="cls-8" d="M255.41,169.48c.06.03.21.08,0,0h0Z"></path><path class="cls-5" d="M269.73,145.66c-.31-4.18-1.5-13.33-2-15.27-.14-.56-.93-1-1.36-1.1-.23-.08-.48-.09-.72,0-4.2,1.5-8.18,3.39-12.21,5.28-4.03,1.88-8.04,3.82-12.06,5.72-8.13,3.84-16.29,7.64-24.49,11.33-16.46,7.41-33.09,14.47-49.87,21.13-9.2,3.65-18.48,7.11-27.8,10.46-.28.1-1.73.68-1.88,1.29-.81,3.25-1.11,6.53-1.27,9.88-.16,3.31-.08,6.62.24,9.92.62,6.39,2.51,12.8,6.17,18.13,7.32,10.66,19.94,15.39,32.26,17.72,16.51,3.12,39.67,2.76,56.31-6.32,10-5.45,22.54-18.02,29.25-34.05,9.67-23.1,10.3-42.37,9.42-54.12ZM160.48,232.37c-5.17-2.38-9.89-5.72-13.48-10.17-3.78-4.69-5.74-10.46-6.66-16.34-.52-3.33-.68-6.68-.69-10.05,4.31,10.91,10.97,20.87,19.73,28.73,5.49,4.93,11.68,8.96,18.47,11.83.65.28,1.32.53,1.98.78-6.68-.62-13.24-1.96-19.35-4.78ZM266.14,154.5c-.24,7.88-1.28,15.75-3.15,23.41-1.88,7.7-4.57,15.24-8.06,22.36-3.26,6.65-7.27,13.07-12.2,18.61-4.85,5.45-10.59,10.09-17.23,13.16-6.27,2.9-13.32,4.48-20.12,4.75-14.18.57-27.84-3.97-39.09-12.64-10.47-8.07-18.78-19.88-23.43-32.38-.55-1.49-2.39-5.8-2.09-5.91,14.87-5.68,30.41-11.19,45.34-17.19,1.38-.55,2.75-1.1,4.11-1.66,16.71-6.88,33.26-14.13,49.66-21.72,4.54-2.1,9.05-4.26,13.56-6.44,3.51-1.7,7.68-3.63,10.42-4.9.26-.12.52-.24.75-.35.02,0,.03-.02.05-.02.91,7.19,1.72,13.67,1.5,20.93Z"></path><path class="cls-4" d="M189.64,183.75c-1.66-.66-16.46,19.69-21.73,20.84-3.34.73-9.05-1.55-11.46-4.31s-5.4-.11-2.48,4.29c2.92,4.39,9.53,9.19,13.99,9.09s9.32-6.83,13.4-13.03c4.08-6.2,10.35-16.05,8.29-16.88Z"></path><path class="cls-18" d="M191.26,171.33c-.47.17-27.66,10.95-28.7,11.37s-4.3,2.03-3.86,3.16c.44,1.13,4.49.17,6.56-.77s25.75-12.75,26.69-13.2,1.23-1.29-.69-.57Z"></path><path class="cls-18" d="M245.77,169.34c-2.07-.39-26.47-3.76-27.43-3.91-.96-.15-1.74.45.09.95.44.12,26.56,6.56,27.57,6.8,1.01.24,4.35.71,4.82-.59.47-1.3-2.98-2.86-5.05-3.24Z"></path><path class="cls-18" d="M246.93,147.65c-1.83.69-22.94,10.06-23.77,10.4-.84.35-1.21,1.33.47.87.41-.11,24.2-7.39,25.11-7.68.92-.29,3.81-1.56,3.64-3.07-.17-1.5-3.62-1.22-5.45-.52Z"></path><path class="cls-4" d="M210.32,204.43c-1.63.74,1.77,9.54-2.39,15.73-1.9,2.84-7.36,5.48-11.03,5.32-3.66-.16-3.81,3.84,1.39,4.75,5.2.92,13.23-.55,16.23-3.85,3-3.3,1.92-7.47.25-14.7-1.14-4.93-2.42-8.17-4.45-7.25Z"></path><path class="cls-4" d="M240.16,200.98c-.47,1.65-1.84,8.94-8.57,13.55-2.21,1.51-6.94,3.07-6.56,4.43.37,1.36,4.65,1.26,8.03-.19,3.39-1.45,10.93-7.96,12.15-13.97,1.22-6.02-3.47-9.32-5.05-3.81Z"></path><path class="cls-18" d="M191.65,173.67c-.26.17-15.52,10.46-16.1,10.86-.59.4-2.36,1.89-1.91,2.79.45.89,2.82-.12,3.97-.99,1.14-.87,14.05-11.82,14.57-12.23s.57-1.12-.52-.43Z"></path><path class="cls-18" d="M201.89,176.82c-.21.45-11.79,27.31-12.23,28.35-.44,1.04-1.6,4.48-.49,4.97,1.11.49,3.29-3.06,4.09-5.19.8-2.12,9.17-27.23,9.51-28.22.35-.99-.04-1.79-.9.09Z"></path><path class="cls-18" d="M200.75,200.59c.95.32,1.91-2.08,2.1-3.51.19-1.43,1.56-18.29,1.63-18.95.07-.66-.39-1.19-.67.07-.07.3-3.56,18.38-3.69,19.07-.13.7-.33,3.01.62,3.32Z"></path><path class="cls-18" d="M224.39,198.61c-.83-2.11-11.46-26.35-11.86-27.31-.4-.97-1.23-1.3-.61.66.15.47,9.57,28.17,9.94,29.23.37,1.07,1.82,4.39,2.97,4.01,1.15-.38.39-4.48-.44-6.59Z"></path></g></svg>