<svg xmlns="http://www.w3.org/2000/svg" xmlns:xlink="http://www.w3.org/1999/xlink" id="zwiebel" viewBox="0 0 227.65 270.632"><defs><style>      .cls-1 {        fill: #555554;      }      .cls-2 {        fill: #f7e5cc;      }      .cls-3 {        fill: #bd7a1a;      }      .cls-4 {        fill: #f7cb00;      }      .cls-5 {        fill: #df8e21;      }      .cls-6 {        fill: #fef8c7;      }      .cls-7 {        fill: #d7db2d;      }      .cls-8 {        fill: url(#Unbenannter_Verlauf_11-2);      }      .cls-9 {        fill: #9b921b;      }      .cls-10 {        fill: #ffe7ac;      }      .cls-11 {        fill: url(#Unbenannter_Verlauf_11);      }    </style><linearGradient id="Unbenannter_Verlauf_11" data-name="Unbenannter Verlauf 11" x1="1.891" y1="136.644" x2="87.323" y2="238.459" gradientUnits="userSpaceOnUse"><stop offset=".04" stop-color="#f8e4cc"></stop><stop offset=".576" stop-color="#df8e21"></stop></linearGradient><linearGradient id="Unbenannter_Verlauf_11-2" data-name="Unbenannter Verlauf 11" x1="28.506" y1="114.1" x2="114.639" y2="216.749" xlink:href="#Unbenannter_Verlauf_11"></linearGradient></defs><g><path class="cls-4" d="M36.506,113.6c-.586-.909-1.037-1.626-1.065-1.729.072.262.137.525.21.787.139.494.468.792.855.943Z"></path><path class="cls-4" d="M46.912,43.204c-.271,2.097-.649,4.54-1.069,7.031.014.249.028.503.043.764.386-2.592.729-5.19,1.026-7.794Z"></path><path class="cls-7" d="M45.008,107.836c1.451,1.451,3.652,9.033,5.168,14.813.837,1.093,1.648,2.214,2.384,3.375.112-.865.243-1.726.408-2.571.315-1.614.709-3.411,2.168-4.393.455-.307.938-.48,1.475-.563.187-.029.454-.075.644-.056.046.005.077,0,.114-.003.012-.159.041-.346.044-.399.033-.54.042-1.081.082-1.621.152-2.077.517-4.148,1.058-6.158.016-.058.037-.115.054-.173-.025-.066-.054-.128-.071-.201-1.407-5.765-2.2-11.669-2.384-17.602-.324-10.491,1.343-21.052,4.873-30.938,1.773-4.967,4.218-9.622,6.302-14.457,1.542-3.577,2.93-7.425,3.163-11.347-5.204,4.743-9.422,10.533-12.294,16.979-3.475,7.799-4.861,16.035-5.185,24.521-.05,1.302-2.206,1.576-2.43.241-.641-3.821-.666-7.809-.117-11.64.191-1.33.581-4.298.603-4.52.748-7.527,1.087-15.141.742-22.702-.173-3.802-.515-7.597-1.06-11.364-.247-1.706-.34-4.304-1.334-6.051-.933,2.676-1.17,5.575-1.345,8.39-.245,3.941-.511,7.876-.922,11.804-.065.618-.146,1.293-.237,2.003-.297,2.604-.64,5.203-1.026,7.794.323,5.793.808,14.349,1.758,19.809.576,3.313.981,7.594,1.26,11.558,1.157,4.487,1.915,9.068,2.079,13.715.054,1.519-2.462,1.735-2.758.274-1.375-6.785-2.848-13.562-5.172-20.097-1.158-3.257-2.505-6.443-4.024-9.548-1.455-2.975-3.052-5.886-4.317-8.95-2.409-5.835-3.003-11.794-2.247-18.044.778-6.428,2.315-12.79,3.583-19.134.629-3.146,1.258-6.292,1.887-9.439.347-1.738.71-3.473,1.068-5.209.137-.662.334-1.34.397-2.016,0-.005.001-.016.002-.022-.236.225-.495.478-.554.56-.369.518-.558,1.077-.785,1.669-.526,1.369-1.032,2.745-1.539,4.12-1.099,2.982-2.133,5.988-3.092,9.019-1.892,5.981-3.503,12.052-4.824,18.185-1.331,6.183-2.826,12.831-1.869,19.173,1.614,10.697,9.543,19.181,11.452,29.822.034.189.027.363,0,.528.557.931.961,1.986,1.337,2.958.827,2.134,2.118,3.605,3.901,5.013,1.823,1.439,3.593,2.812,5.02,4.67,2.8,3.644,4.354,8.13,3.948,12.739-.146,1.663-2.549,1.555-2.665-.078-.31-4.401-2.074-8.723-5.286-11.788-1.759-1.678-3.796-2.959-5.436-4.619.476,1.214.857,2.734,1.537,5.451,1.029,4.118,2.059,4.118,4.461,6.519Z"></path><path class="cls-9" d="M45.886,50.998c-.015-.261-.029-.515-.043-.764-1.266,7.512-2.909,15.446-3.129,15.554,1.717,3.637,3.326,7.309,4.6,11.173.588,1.784,1.121,3.587,1.589,5.404-.279-3.965-.684-8.246-1.26-11.558-.95-5.46-1.434-14.016-1.758-19.809Z"></path><path class="cls-9" d="M37.714,108.432c.948,1.481,1.896,2.962,2.844,4.444.948,1.481,1.896,2.963,2.845,4.444.403.629.757,1.319,1.316,1.828.096.088.417.258.543.382.665-.625,2.001-.536,2.564.161.783.968,1.578,1.952,2.35,2.96-1.516-5.779-3.718-13.362-5.168-14.813-2.402-2.402-3.431-2.402-4.461-6.519-.679-2.718-1.06-4.237-1.537-5.451-.987-.999-1.83-2.136-2.382-3.58-.361-.946-1.058-4.841-2.45-4.81-1.082.024-1.086,1.818-1.001,2.483.11.862.395,1.7.627,2.534,1.467,5.271,2.566,10.636,3.91,15.938Z"></path><path class="cls-11" d="M19.101,221.927c13.21,9.951,22.869,2.898,26.078-1.716,2.745-3.946,2.162-14.901,1.904-17.998-.961-11.523,2.001-23.459,2.488-25.321.135-4.437.956-8.815,1.882-13.148,1.805-8.447,4.255-17.331,1.922-25.859-.069-.097-.134-.199-.17-.323-.104-.357-.183-.721-.268-1.084-.03-.089-.052-.178-.083-.266-.047-.132-.067-.257-.076-.376-.058-.282-.519-1.158-.763-1.761-.017-.036-.031-.076-.046-.114-.039-.104-.072-.2-.09-.276-.904-3.903-3.433-7.229-5.927-10.323-1.023.149-2.135-.198-3.019-.824-1.715-1.214-2.685-3.156-3.792-4.886-.52-.812-1.737-2.659-2.635-4.052-.387-.15-.716-.448-.855-.943-.074-.261-.138-.525-.21-.787-.469-.733-.938-1.465-1.407-2.198-.025.396-.045.793-.046,1.195-.013,4.07.897,8.078,1.341,12.108.416,3.779.262,7.524-.64,11.225-1.768,7.251-5.935,13.674-10.257,19.648-8.836,12.214-18.925,24.865-20.486,40.439-.338,3.374-.19,6.697.379,9.918,3.322,4.735,10.368,14.399,14.778,17.721Z"></path><path class="cls-8" d="M101.868,145.354c-5.297-3.665-11.022-6.307-16.957-8.745-5.404-2.22-11.061-4.617-15.16-8.894-.014-.017-.031-.027-.045-.045-.008-.01-.015-.019-.023-.029-.37-.39-.748-.772-1.091-1.195-.189-.233-.307-.475-.369-.717-2.01-2.764-3.696-5.736-4.905-8.951-.358-.952-.684-1.914-.965-2.891-.17-.591-.281-1.22-.439-1.826-.226.92-.419,1.848-.562,2.786-.282,1.849.046,4.47-1.309,5.955-.778.852-1.542.726-2.562,1.02-.522.15-.21-.071-.544.314-.228.262-.299.785-.388,1.111-.841,3.075-1.052,6.233-1.041,9.396.011.044.028.086.038.13.085.367.06.695-.03.985.008.431.245,1.582.31,1.77,1.706,4.92,1.81,10.174,1.117,15.294-1.267,9.371-4.705,18.393-4.707,27.931,0,3.767.447,7.49,1.167,11.172l5.273,18.628s.863,3.291,2.579,3.291,8.476,1.007,16.711-1.395c8.235-2.402,21.589-9.925,26.735-14.386,5.147-4.461,11.352-22.672,12.038-27.819.337-2.529.509-5.222.596-7.309-4.04-6.144-9.423-11.399-15.466-15.581Z"></path><path class="cls-3" d="M58.675,208.552l-5.273-18.628c1.238,6.33,3.285,12.536,5.273,18.628Z"></path><path class="cls-3" d="M104.385,195.351c-5.147,4.461-18.133,12.885-26.421,15.098-11.11,2.966-19.29-1.897-19.29-1.897.387,1.186-1.545,1.591-1.957.452-1.972-5.457-3.937-10.926-5.303-16.573-1.164-4.812-1.924-9.766-1.87-14.727.003-.271.018-.54.026-.811-.487,1.862-3.449,13.798-2.488,25.321.258,3.096.841,14.052-1.904,17.998-3.209,4.613-12.867,11.666-26.078,1.716-4.41-3.322-11.456-12.986-14.778-17.721,1.75,9.898,7.5,18.823,15.519,25.222,4.344,3.466,9.314,6.029,14.445,8.115,4.388,1.784,8.95,3.137,13.635,3.864.496.077.993.132,1.49.195,10.973,1.231,30.374-1.305,46.787-11.374,4.201-2.577,8.208-5.64,11.824-9.268,4.088-4.101,7.984-8.408,10.912-13.415,3.994-6.83,6.11-14.492,6.007-22.377-.042-3.164-.404-6.03-1.16-9.276-.341-1.463-.75-2.909-1.225-4.333-.201-.602-.416-1.2-.64-1.794-.05-.124-.216-.551-.255-.645-.117-.287-.237-.573-.359-.859-1.103-2.564-2.443-5.006-3.969-7.325-.087,2.087-.259,4.78-.596,7.309-.686,5.147-7.206,22.647-12.353,27.107Z"></path><path class="cls-1" d="M109.671,146.113c-5.814-4.918-12.385-8.752-19.417-11.648-6.716-2.766-14.123-4.624-18.921-10.491-.03-.036-.063-.061-.094-.094-1.822-2.577-3.297-5.404-4.392-8.361-.638-1.721-.95-3.533-1.555-5.255-.527-1.499-1.65-3.117-3.405-3.174-.144-.005-.271.018-.405.031-1.978-9.641-2.204-19.544-.736-29.287.781-5.184,2.084-10.288,3.85-15.223,1.779-4.969,4.224-9.622,6.339-14.446,2.371-5.407,3.972-11.007,3.169-16.95-.208-1.538-2.179-1.634-3.154-.88-6.795,5.256-12.213,12.157-15.849,19.901.403-4.455.48-8.936.24-13.437-.219-4.105-.699-8.2-1.393-12.252-.504-2.943-1.2-6.44-4.18-7.861-.763-.364-1.94-.315-2.39.552-1.703,3.278-2.317,6.83-2.571,10.486-.275,3.962-.425,7.926-.778,11.884-.668,7.494-1.735,14.95-3.166,22.337-.453-.931-.906-1.863-1.358-2.798-1.337-2.768-2.526-5.602-3.132-8.629-.673-3.361-.584-6.809-.203-10.201.762-6.785,2.423-13.503,3.76-20.192.693-3.465,1.4-6.927,2.07-10.396.32-1.655.673-3.308.96-4.969.234-1.356.194-2.768-.832-3.813-1.993-2.029-4.761-.426-6.19,1.395-.848,1.081-1.287,2.409-1.782,3.674-.654,1.67-1.277,3.35-1.87,5.042-2.209,6.305-4.101,12.722-5.666,19.217-1.557,6.463-3.136,13.14-3.589,19.788-.241,3.544.007,7.121.951,10.553.839,3.048,2.122,5.956,3.528,8.78,2.463,4.947,5.341,9.759,6.897,15.07-1.73-.004-3.281,1.267-3.936,2.881-.85,2.093-.036,4.342.516,6.399.508,1.896.968,3.804,1.424,5.713.27,1.131.533,2.264.797,3.397-.811-.061-1.635.383-1.953,1.32-2.727,8.052.975,16.207.501,24.376-.44,7.582-4.364,14.416-8.57,20.532-4.466,6.494-9.47,12.581-13.552,19.341-4.076,6.75-7.499,14.115-8.917,21.918-1.328,7.307-.863,14.811,1.783,21.777,2.456,6.467,6.41,12.294,11.393,17.085,4.646,4.467,10.027,7.831,15.879,10.475,4.394,1.985,8.92,3.666,13.635,4.709,10.376,2.294,21.017,1.524,31.288-.848,0,.008-.002.015-.002.023v6.542c0,.988.838,1.944,1.866,1.912,1.012-.032,1.912-.809,1.912-1.866v-6.542c0-.333-.102-.66-.268-.95.671-.179,1.341-.364,2.008-.556.049.062.099.124.148.187.065.084.453.557.112.141.224.273.414.588.607.884.39.599.752,1.216,1.084,1.849.332.635.623,1.285.902,1.944.014.035.022.056.031.076.012.033.025.065.037.098.062.167.123.336.181.505.117.338.224.679.326,1.021.28.948,1.282,1.673,2.289,1.376.947-.28,1.675-1.277,1.376-2.289-.737-2.494-1.862-4.814-3.312-6.947,1.24-.399,2.475-.811,3.704-1.242.921,2.236,2.53,4.168,4.591,5.454.838.523,2.111.241,2.591-.646.495-.913.252-2.031-.646-2.591-.234-.146-.456-.311-.677-.475-.547-.461-1.04-.978-1.477-1.544-.371-.544-.688-1.12-.946-1.726-.116-.322-.227-.645-.309-.977-.009-.035-.026-.068-.037-.103.003-.001.005-.002.008-.003,6.524-2.951,12.469-7.097,17.874-11.772,4.301-3.72,8.243-7.916,11.493-12.591,5.003-7.197,8.216-15.603,8.769-24.381,1.034-16.414-6.875-31.76-19.26-42.236ZM33.177,89.959c-.085-.665-.08-2.459,1.001-2.483,1.392-.031,2.089,3.864,2.45,4.81.551,1.444,1.395,2.58,2.382,3.58,1.64,1.66,3.678,2.941,5.436,4.619,3.212,3.065,4.976,7.388,5.286,11.788.115,1.633,2.518,1.741,2.665.078.406-4.609-1.148-9.095-3.948-12.739-1.427-1.857-3.197-3.23-5.02-4.67-1.784-1.408-3.075-2.879-3.901-5.013-.377-.972-.78-2.028-1.337-2.958.026-.165.034-.339,0-.528-1.909-10.641-9.839-19.125-11.452-29.822-.957-6.341.538-12.989,1.869-19.173,1.321-6.133,2.931-12.203,4.824-18.185.959-3.031,1.993-6.036,3.092-9.019.507-1.376,1.013-2.752,1.539-4.12.227-.591.416-1.15.785-1.669.058-.082.318-.335.554-.56,0,.006-.001.017-.002.022-.062.676-.26,1.354-.397,2.016-.359,1.736-.721,3.471-1.068,5.209-.629,3.146-1.258,6.292-1.887,9.439-1.268,6.345-2.806,12.706-3.583,19.134-.756,6.25-.162,12.209,2.247,18.044,1.265,3.065,2.862,5.975,4.317,8.95,1.518,3.105,2.866,6.291,4.024,9.548,2.323,6.535,3.797,13.312,5.172,20.097.296,1.461,2.812,1.245,2.758-.274-.164-4.647-.921-9.228-2.079-13.715-.469-1.817-1.001-3.619-1.589-5.404-1.273-3.864-2.883-7.537-4.6-11.173.22-.108,1.863-8.042,3.129-15.554.42-2.49.798-4.934,1.069-7.031.092-.71.173-1.385.237-2.003.411-3.928.677-7.863.922-11.804.175-2.815.412-5.714,1.345-8.39.994,1.748,1.087,4.346,1.334,6.051.544,3.767.887,7.562,1.06,11.364.344,7.561.006,15.175-.742,22.702-.022.222-.412,3.19-.603,4.52-.549,3.832-.524,7.82.117,11.64.224,1.334,2.38,1.061,2.43-.241.324-8.485,1.71-16.722,5.185-24.521,2.872-6.446,7.09-12.236,12.294-16.979-.233,3.923-1.621,7.77-3.163,11.347-2.084,4.834-4.529,9.49-6.302,14.457-3.53,9.886-5.197,20.446-4.873,30.938.183,5.932.977,11.836,2.384,17.602.018.073.047.135.071.201-.017.058-.039.115-.054.173-.541,2.01-.906,4.082-1.058,6.158-.04.54-.049,1.081-.082,1.621-.003.054-.033.24-.044.399-.037.002-.068.008-.114.003-.19-.019-.457.028-.644.056-.538.082-1.02.256-1.475.563-1.459.982-1.853,2.779-2.168,4.393-.165.845-.296,1.705-.408,2.571-.737-1.161-1.547-2.282-2.384-3.375-.772-1.008-1.567-1.992-2.35-2.96-.564-.697-1.899-.785-2.564-.161-.126-.124-.446-.294-.543-.382-.559-.508-.914-1.199-1.316-1.828-.948-1.481-1.896-2.963-2.845-4.444-.948-1.481-1.896-2.962-2.844-4.444-1.343-5.302-2.443-10.668-3.91-15.938-.232-.834-.517-1.672-.627-2.534ZM121.302,168.26c.123.285.242.571.359.859.038.094.205.521.255.645.224.594.439,1.192.64,1.794.475,1.424.885,2.871,1.225,4.333.756,3.246,1.118,6.112,1.16,9.276.103,7.885-2.013,15.547-6.007,22.377-2.928,5.007-6.824,9.314-10.912,13.415-3.616,3.628-7.624,6.691-11.824,9.268-16.413,10.07-35.814,12.605-46.787,11.374-.497-.063-.994-.118-1.49-.195-4.686-.727-9.247-2.08-13.635-3.864-5.131-2.086-10.101-4.649-14.445-8.115-8.019-6.399-13.769-15.324-15.519-25.222-.569-3.221-.717-6.544-.379-9.918,1.562-15.574,11.65-28.226,20.486-40.439,4.322-5.974,8.488-12.397,10.257-19.648.903-3.701,1.057-7.447.64-11.225-.444-4.03-1.353-8.038-1.341-12.108.001-.402.022-.799.046-1.195.469.733.938,1.465,1.407,2.198.028.103.479.82,1.065,1.729.898,1.393,2.115,3.24,2.635,4.052,1.107,1.73,2.077,3.672,3.792,4.886.884.626,1.996.973,3.019.824,2.494,3.095,5.023,6.42,5.927,10.323.018.076.051.172.09.276.015.039.029.078.046.114.244.603.705,1.479.763,1.761.008.12.029.244.076.376.031.089.053.178.083.266.086.362.164.726.268,1.084.036.124.101.226.17.323,2.334,8.528-.117,17.412-1.922,25.859-.926,4.333-1.747,8.711-1.882,13.148-.008.27-.023.54-.026.811-.054,4.961.706,9.915,1.87,14.727,1.366,5.647,3.331,11.116,5.303,16.573.412,1.139,2.344.734,1.957-.452-1.988-6.093-4.035-12.298-5.273-18.628-.72-3.681-1.168-7.404-1.167-11.172.002-9.538,3.44-18.56,4.707-27.931.692-5.12.589-10.375-1.117-15.294-.065-.189-.302-1.339-.31-1.77.09-.291.115-.618.03-.985-.01-.044-.027-.086-.038-.13-.011-3.163.2-6.32,1.041-9.396.089-.326.16-.849.388-1.111.335-.384.022-.163.544-.314,1.021-.294,1.784-.168,2.562-1.02,1.356-1.485,1.027-4.107,1.309-5.955.143-.938.336-1.865.562-2.786.159.606.269,1.235.439,1.826.282.977.607,1.94.965,2.891,1.209,3.214,2.895,6.187,4.905,8.951.062.242.18.484.369.717.343.423.721.805,1.091,1.195.008.01.015.019.023.029.014.018.03.028.045.045,4.098,4.277,9.756,6.674,15.16,8.894,5.935,2.439,11.66,5.08,16.957,8.745,6.044,4.182,11.426,9.437,15.466,15.581,1.525,2.319,2.865,4.761,3.969,7.325Z"></path><path class="cls-2" d="M18.544,190.478c7.716-.04,7.399-12.711,10.896-20.684,2.81-6.408,12.748-29.149,9.838-29.513-2.105-.263-6.528,11.291-11.64,17.823-3.666,4.684-10.71,13.864-12.666,21.473-1.538,5.981.546,10.916,3.573,10.9Z"></path></g><path class="cls-5" d="M169.682,262.527c1.875,1.071,9.661.171,14.51-.524,4.564-1.782,8.928-4.016,12.946-6.646,8.726-5.711,16.273-13.657,21.594-22.753-.931,1.099-1.916,2.153-2.952,3.154-8.314,8.038-19.37,13.381-30.385,16.577-4.786,1.389-9.7,2.338-14.66,2.861-1.123,2.188-2.893,6.279-1.052,7.331Z"></path><path class="cls-6" d="M148.677,253.535l.183-.008c-.035-.327.031-.655.184-.929-.241.083-.49.169-.745.257.194.171.335.404.377.68Z"></path><path class="cls-6" d="M190.804,161.678c-3.502,2.561-7.125,4.178-11.289,5.39-4.733,1.377-9.574,2.367-14.37,3.492-13.343,3.13-26.778,7.119-38.8,13.848-5.864,3.282-10.801,7.751-13.55,13.985-2.483,5.629-3.252,11.99-2.262,18.058,1.024,6.275,4.175,11.852,8.094,16.782.356.448.721.89,1.089,1.33,1.504,5.165,6.304,6.223,8.237,8.087,1.187.944,2.416,1.832,3.683,2.658l.298-.895-.686-4.804s-1.372-10.294-.686-15.441c.686-5.147,4.118-16.127,9.264-20.931,5.147-4.804,14.755-9.951,18.186-11.323,2.039-.816,4.804-1.025,5.922-.773,1.172-.518,2.35-1.009,3.532-1.466,1.187-.459,2.205,1.176.963,1.724-4.199,1.854-8.309,3.939-12.195,6.387-2.884,1.816-5.639,3.867-8.153,6.166-1.762,1.821-3.242,3.598-4.137,5.119-2.557,4.346-6.255,10.025-7.833,14.625-.362,1.621-.6,3.266-.7,4.919.165,2.491.239,4.654.271,6.085.097.626.216,1.25.358,1.871.825.086,3.115.074,5.844-2.109,1.582-1.265,3.382-3.406,5.031-5.58,2.625-4.23,5.61-8.23,8.912-11.955,2.809-3.362,6.287-7.133,8.703-8.542,4.118-2.402,6.176,1.716,3.774,6.176-2.402,4.461-5.49,12.01-9.264,14.755-3.774,2.745-9.951,6.863-9.608,8.921.343,2.059,19.902-12.01,23.676-19.215,3.774-7.206,7.892-17.156,8.921-24.362,1.029-7.206,12.01-25.392,14.755-29.509,4.975-7.463,6.035-11.576,7.549-11.323,1.029.172-1.373,5.833-3.431,8.921-.443.665-1.046,1.697-1.736,2.96.59.011,1.186.404,1.229,1.155.496,8.753,2.971,17.186,4.449,25.788.749,4.36,1.191,8.766.974,13.138.012.805-.022,1.457-.112,1.909-.01.051-.025.109-.037.161-.228,2.277-.651,4.541-1.324,6.78-1.877,6.246-5.407,11.951-9.804,16.733-6.245,6.793-14.24,11.376-22.858,14.314-.274.716.246,1.302,1.769,1.472,1.769.197,16.521-3.096,27.193-10.723,7.697-5.501,12.182-15.012,13.296-18.786,1.108-3.752,1.716-19.215,1.373-21.617s.686-1.716,2.059,6.176.686,14.755-1.716,20.245c-2.402,5.49-4.118,8.578-9.265,13.382-5.147,4.804-10.98,7.463-16.47,10.894-1.439.899-3.469,1.804-5.698,2.65,1.591-.463,3.169-.972,4.733-1.53,10.381-3.702,20.949-9.584,27.806-18.42,3.417-4.403,5.965-9.661,6.661-15.231.599-4.797-.196-9.633-2.006-14.102-3.564-8.802-9.944-16.093-13.812-24.742-2.064-4.615-3.589-9.68-3.245-14.786.354-5.248,2.818-9.961,5.806-14.173.186-.263.47-.404.771-.452.642-1.053,1.987-3.492,2.247-5.826.132-1.186-.041-2.27-.42-2.962-2.035,3.522-4.324,6.934-6.815,10.121-4.322,5.529-9.492,10.265-15.148,14.402ZM193.526,165.064c-2.047,2.43-4.999,5.003-8.218,7.382.1.301.034.646-.318.939-5.733,4.777-12.607,7.617-19.654,9.859-11.632,3.702-24.571,6.236-33.624,15.091-4.57,4.47-7.175,10.333-7.42,16.726-.265,6.898,1.892,13.714,4.99,19.804.3.59.089,1.13-.31,1.47.028.061.047.101.047.101,0,0-7.549,4.118-12.01-16.127-4.461-20.245,13.975-32.473,19.73-34.742,11.752-4.632,21.446-5.747,27.965-7.12,6.519-1.373,19.558-8.578,22.99-10.98s10.523-10.408,10.98-9.951c.572.572-5.147,7.549-5.147,7.549Z"></path><path class="cls-6" d="M197.931,168.043c-2.356,4.567-5.154,10.622-6.292,14.264-1.042,3.334-3.476,12.491-5.535,20.244-.758,3.949-1.68,7.874-3.141,11.619-.092.268-.208.558-.351.871-.092.221-.183.443-.28.663-2.042,4.662-4.814,8.927-8.149,12.765-1.545,1.778-3.201,3.452-4.941,5.036-.963,1.144-1.769,2.074-2.309,2.674-3.088,3.431-2.402,4.461,1.716,3.774,4.118-.686,16.813-7.892,19.558-10.98,2.745-3.088,10.637-15.441,11.666-19.558,1.029-4.118.686-14.068.686-17.5,0-.831-.04-2.31-.097-4.084-1.297-6.564-2.708-13.13-2.533-19.787Z"></path><path class="cls-6" d="M150.734,252.014c3.037.394,6.088.613,9.139.659-4.233-.482-8.278-.957-8.278-.957,0,0-.331.115-.861.298Z"></path><path class="cls-10" d="M187.692,167.466c-3.431,2.402-16.47,9.608-22.99,10.98-6.519,1.373-16.213,2.488-27.965,7.12-5.755,2.268-24.191,14.497-19.73,34.742,4.461,20.245,12.01,16.127,12.01,16.127,0,0-.019-.04-.047-.101-.577.49-1.55.559-1.977-.27-3.578-6.954-6.009-14.886-5.273-22.78.603-6.469,3.506-12.308,8.113-16.853,4.411-4.352,10.014-7.402,15.738-9.656,12.596-4.96,27.009-6.343,38.003-14.824.674-.52,1.535-.1,1.733.495,3.218-2.379,6.171-4.952,8.218-7.382,0,0,5.719-6.977,5.147-7.549-.458-.458-7.549,7.549-10.98,9.951Z"></path><path class="cls-10" d="M206.393,235.834c5.147-4.804,6.863-7.892,9.265-13.382,2.402-5.49,3.088-12.353,1.716-20.245s-2.402-8.578-2.059-6.176-.265,17.865-1.373,21.617c-1.114,3.774-5.599,13.285-13.296,18.786-10.672,7.627-25.424,10.919-27.193,10.723-1.523-.169-2.043-.756-1.769-1.472-5.171,1.763-10.567,2.933-15.944,3.634-2.042.266-2.768-2.728-.696-3.015,7.996-1.107,15.857-3.189,23.104-6.796,11.471-5.71,21.333-15.912,23.728-28.856,1.424-7.694.082-15.256-1.413-22.823.056,1.774.097,3.253.097,4.084,0,3.431.343,13.382-.686,17.5-1.029,4.118-8.921,16.47-11.666,19.558-2.745,3.088-15.441,10.294-19.558,10.98-4.118.686-4.804-.343-1.716-3.774.54-.6,1.346-1.53,2.309-2.674-5.886,5.36-12.773,9.636-19.966,12.979-1.833.852-3.374-1.788-1.495-2.678,5.108-2.42,10.023-5.279,14.514-8.721,7.852-6.019,14.59-13.831,17.958-23.241,3.783-10.568,3.45-22.355,9.055-32.305.64-1.137,2.74-.321,2.188.939-2.624,5.988-3.656,12.367-4.785,18.758-.195,1.104-.395,2.21-.607,3.314,2.058-7.753,4.493-16.909,5.535-20.244,1.138-3.641,3.936-9.696,6.292-14.264.011-.416.026-.833.05-1.25.042-.743.611-1.095,1.187-1.084.689-1.263,1.292-2.295,1.736-2.96,2.059-3.088,4.461-8.75,3.431-8.921-1.514-.252-2.573,3.86-7.549,11.323-2.745,4.118-13.725,22.303-14.755,29.509-1.029,7.206-5.147,17.156-8.921,24.362-3.774,7.206-23.333,21.274-23.676,19.215-.343-2.059,5.833-6.176,9.608-8.921,3.774-2.745,6.863-10.294,9.264-14.755,2.402-4.461.343-8.578-3.774-6.176-2.416,1.409-5.894,5.18-8.703,8.542,1.976-2.229,4.062-4.362,6.258-6.382.701-.645,1.912-.339,2.136.621.705,3.02-.25,6.177-2.555,8.265-1.226,1.111-3.005-.75-1.775-1.865.941-.852,1.561-1.931,1.831-3.101-6.563,6.471-12.042,13.944-16.23,22.172-.753,1.479-2.953.142-2.206-1.325,1.118-2.196,2.331-4.34,3.629-6.43-1.649,2.175-3.449,4.315-5.031,5.58-2.73,2.184-5.019,2.195-5.844,2.109.095.415.194.829.31,1.24.423,1.512-2.063,2.08-2.484.573-1.284-4.59-1.373-9.401-.469-14.07,3.105-16.029,16.251-26.861,30.536-33.174-1.117-.252-3.883-.042-5.922.773-3.431,1.372-13.039,6.519-18.186,11.323-5.147,4.804-8.578,15.784-9.264,20.931-.686,5.147.686,15.441.686,15.441l.686,4.804-.298.895c.392.255.786.507,1.185.75.432.263.618.625.639.994,1.002-.073,2.036.084,2.914.585,1.044.595,1.804,1.642,1.77,2.882-.013.471-.139.919-.314,1.349.261-.164.533-.306.837-.399,1.229-.379,2.452.111,3.114,1.213.146.243.247.507.37.761.031.064.061.128.092.191.023.035.036.056.051.081.471.111,1.189.009,1.68.016l.896-.037c.683-.076,1.279-.29,1.845-.831.476-.456,1.159-.381,1.585-.006.255-.088.504-.174.745-.257.237-.424.752.38,1.413.468.113.015.775-.408.888-.393.529-.183,1.571.393,1.571.393,0,0,3.145.182,7.378.664,8.224.126,16.02-2.05,23.931-4.351,2.228-.846,4.259-1.751,5.698-2.65,5.49-3.431,11.323-6.091,16.47-10.894Z"></path><path class="cls-10" d="M182.962,214.169c-.114.291-.23.582-.351.871.143-.313.259-.603.351-.871Z"></path><path class="cls-10" d="M139.388,214.916c-1.481,2.764-2.597,5.729-3.278,8.779,1.578-4.6,5.276-10.279,7.833-14.625.894-1.521,2.374-3.298,4.137-5.119-3.458,3.162-6.458,6.797-8.692,10.965Z"></path><path class="cls-10" d="M205.707,207.698c.09-.452.124-1.103.112-1.909-.034.691-.08,1.381-.149,2.07.012-.053.027-.11.037-.161Z"></path><path class="cls-3" d="M148.69,253.705c.009,3.091-4.528,3.078-6.648,2.964-1.459-.079-2.3-.861-2.874-2.146-.001-.003-.005-.009-.006-.013-.352.232-.689.516-1.066.719-1.167.627-2.721.47-3.463-.737-.769-1.25-.209-2.419.196-3.656.138-.423.118-.441-.284-.623-.288-.13-.665-.151-.973-.125-1.613.138-2.985.983-4.668.812-1.078-.11-1.686-.929-1.452-1.985.186-.841.593-1.606,1.158-2.243-5.179-3.547-9.748-8.068-13.512-13.053-1.152-1.525-2.2-3.102-3.141-4.725,1.985,7.551,5.417,14.695,10.422,20.742,4.061,4.906,9.06,9.251,14.661,12.31,6.097,3.331,13.019,4.737,19.918,4.937,9.145.266,18.555-1.489,27.236-4.879-4.85.695-12.636,1.595-14.51.524-1.841-1.052-.07-5.143,1.052-7.331-6.816.719-13.72.627-20.504-.281-.855-.115-1.301-.741-1.371-1.388l-.183.008c.008.055.014.112.014.17Z"></path><path class="cls-3" d="M144.87,253.692l-.896.037c.317.004.613-.006.896-.037Z"></path><path class="cls-1" d="M227.257,205.255c-1.568-9.732-7.992-17.501-12.961-25.686-2.886-4.755-5.323-9.801-6.2-15.342-.975-6.166,1.57-11.516,4.165-16.932.431-.9-.512-1.477-1.322-1.35-.301.047-.585.189-.771.452-2.989,4.212-5.453,8.926-5.806,14.173-.344,5.106,1.182,10.171,3.245,14.786,3.868,8.649,10.248,15.94,13.812,24.742,1.809,4.469,2.605,9.304,2.006,14.102-.696,5.569-3.244,10.828-6.661,15.231-6.857,8.836-17.425,14.718-27.806,18.42-1.564.558-3.142,1.067-4.733,1.53-7.911,2.301-16.128,3.42-24.352,3.294-3.051-.047-6.102-.266-9.139-.659-.113-.015-.227-.025-.34-.04-.662-.089-1.113.2-1.35.624-.153.274-.219.603-.184.929.069.647.515,1.273,1.371,1.388,6.784.909,13.688,1,20.504.281,4.96-.523,9.874-1.473,14.66-2.861,11.016-3.196,22.071-8.539,30.385-16.577,1.035-1.001,2.021-2.055,2.952-3.154-5.32,9.097-12.868,17.042-21.594,22.753-4.018,2.63-8.382,4.864-12.946,6.646-8.682,3.39-18.091,5.144-27.236,4.879-6.899-.2-13.82-1.606-19.918-4.937-5.601-3.059-10.601-7.404-14.661-12.31-5.005-6.047-8.438-13.192-10.422-20.742.941,1.623,1.989,3.2,3.141,4.725,3.764,4.985,8.333,9.506,13.512,13.053-.565.637-.972,1.402-1.158,2.243-.234,1.056.374,1.875,1.452,1.985,1.684.171,3.055-.674,4.668-.812.309-.026.685-.005.973.125.402.182.422.2.284.623-.405,1.237-.964,2.407-.196,3.656.742,1.207,2.296,1.364,3.463.737.378-.203.714-.486,1.066-.719.002.004.005.01.006.013.575,1.285,1.415,2.068,2.874,2.146,2.12.114,6.657.127,6.648-2.964,0-.058-.005-.115-.014-.17-.042-.276-.183-.508-.377-.68-.426-.376-1.109-.45-1.585.006-.566.541-1.162.756-1.845.831-.283.031-.579.041-.896.037-.492-.007-1.21.095-1.68-.016-.015-.025-.028-.046-.051-.081-.031-.064-.061-.128-.092-.191-.123-.254-.224-.518-.37-.761-.662-1.101-1.885-1.591-3.114-1.213-.304.094-.576.235-.837.399.175-.43.301-.878.314-1.349.034-1.24-.726-2.287-1.77-2.882-.879-.501-1.912-.658-2.914-.585-.021-.368-.207-.731-.639-.994-.399-.243-.794-.494-1.185-.75-1.267-.826-2.496-1.715-3.683-2.658-3.016-2.397-5.767-5.143-8.237-8.087-.369-.44-.733-.882-1.089-1.33-3.919-4.929-7.07-10.507-8.094-16.782-.99-6.068-.221-12.429,2.262-18.058,2.749-6.233,7.687-10.702,13.55-13.985,12.021-6.729,25.457-10.717,38.8-13.848,4.796-1.125,9.638-2.115,14.37-3.492,4.164-1.212,7.787-2.828,11.289-5.39,5.656-4.137,10.827-8.872,15.148-14.402,2.49-3.186,4.779-6.599,6.815-10.121.542-.937,1.069-1.881,1.573-2.831.908-1.713-1.396-2.945-2.523-1.488-2.832,3.66-5.028,7.771-7.824,11.468-3.691,4.879-8.099,9.164-12.897,12.948-2.029,1.6-4.079,3.248-6.407,4.397-1.733.855-3.558,1.488-5.405,2.045-4.776,1.44-9.674,2.456-14.524,3.606-13.732,3.255-27.588,7.393-39.914,14.424-5.941,3.389-11.061,7.882-14.167,14.064-2.052,4.085-3.232,8.573-3.539,13.125-.042.222-.085.443-.125.666-.097.545-.173,1.088-.224,1.639-.308,3.3-.225,6.667.087,9.962.958,10.094,4.406,19.975,10.384,28.205,3.87,5.328,8.663,9.869,14.097,13.582,6.133,4.19,13.198,6.527,20.554,7.344,7.471.83,15.167-.016,22.446-1.785,7.071-1.719,14.036-4.323,20.346-7.968,12.416-7.173,22.329-18.012,28.159-31.105,4.588-10.304,5.421-17.812,4.393-24.199Z"></path><path class="cls-1" d="M174.183,228.467c3.335-3.837,6.107-8.103,8.149-12.765.096-.22.188-.441.28-.663.12-.289.237-.579.351-.871,1.461-3.745,2.383-7.67,3.141-11.619.212-1.104.412-2.21.607-3.314,1.129-6.391,2.161-12.77,4.785-18.758.553-1.261-1.547-2.076-2.188-.939-5.605,9.95-5.272,21.737-9.055,32.305-3.368,9.41-10.106,17.222-17.958,23.241-4.491,3.442-9.406,6.301-14.514,8.721-1.878.89-.338,3.53,1.495,2.678,7.193-3.344,14.08-7.619,19.966-12.979,1.739-1.584,3.395-3.258,4.941-5.036Z"></path><path class="cls-1" d="M197.981,166.792c-.024.417-.039.834-.05,1.25-.175,6.657,1.236,13.224,2.533,19.787,1.495,7.566,2.836,15.129,1.413,22.823-2.395,12.944-12.258,23.146-23.728,28.856-7.247,3.608-15.108,5.689-23.104,6.796-2.072.287-1.346,3.281.696,3.015,5.377-.7,10.773-1.871,15.944-3.634,8.618-2.938,16.613-7.521,22.858-14.314,4.397-4.782,7.927-10.487,9.804-16.733.673-2.239,1.097-4.503,1.324-6.78.069-.689.115-1.379.149-2.07.217-4.371-.225-8.778-.974-13.138-1.477-8.602-3.953-17.035-4.449-25.788-.043-.751-.639-1.144-1.229-1.155-.575-.011-1.144.341-1.187,1.084Z"></path><path class="cls-1" d="M133.397,224.315c-.905,4.669-.815,9.48.469,14.07.421,1.507,2.907.939,2.484-.573-.115-.412-.215-.826-.31-1.24-.142-.621-.261-1.245-.358-1.871-.313-2.019-.394-4.057-.271-6.085.1-1.653.338-3.298.7-4.919.681-3.05,1.796-6.015,3.278-8.779,2.234-4.167,5.234-7.802,8.692-10.965,2.514-2.299,5.269-4.35,8.153-6.166,3.887-2.447,7.996-4.533,12.195-6.387,1.242-.548.224-2.184-.963-1.724-1.182.457-2.36.948-3.532,1.466-14.285,6.313-27.431,17.145-30.536,33.174Z"></path><path class="cls-1" d="M183.575,171.95c-10.994,8.481-25.407,9.864-38.003,14.824-5.725,2.254-11.327,5.304-15.738,9.656-4.607,4.545-7.51,10.384-8.113,16.853-.736,7.894,1.695,15.826,5.273,22.78.427.83,1.4.76,1.977.27.4-.34.611-.879.31-1.47-3.098-6.09-5.255-12.905-4.99-19.804.245-6.393,2.851-12.256,7.42-16.726,9.053-8.855,21.992-11.389,33.624-15.091,7.047-2.243,13.921-5.082,19.654-9.859.352-.293.418-.638.318-.939-.198-.595-1.059-1.015-1.733-.495Z"></path><path class="cls-1" d="M145.493,236.637c4.188-8.228,9.668-15.701,16.23-22.172-.27,1.17-.89,2.249-1.831,3.101-1.23,1.114.548,2.975,1.775,1.865,2.305-2.088,3.26-5.245,2.555-8.265-.224-.96-1.435-1.266-2.136-.621-2.196,2.02-4.282,4.153-6.258,6.382-3.302,3.725-6.287,7.725-8.912,11.955-1.298,2.091-2.511,4.235-3.629,6.43-.747,1.468,1.453,2.804,2.206,1.325Z"></path></svg>